<svg width="24" height="24" viewBox="0 0 24 24" fill="none" xmlns="http://www.w3.org/2000/svg">
<path d="M21 3H3.75C3.33516 3 3 3.33516 3 3.75V21C3 21.4148 3.33516 21.75 3.75 21.75H21C21.4148 21.75 21.75 21.4148 21.75 21V3.75C21.75 3.33516 21.4148 3 21 3ZM8.56172 18.9773H5.77969V10.0289H8.56172V18.9773ZM7.17188 8.80547C6.85295 8.80547 6.54119 8.7109 6.27602 8.53371C6.01084 8.35653 5.80417 8.10469 5.68212 7.81005C5.56007 7.5154 5.52814 7.19118 5.59036 6.87839C5.65258 6.56559 5.80615 6.27827 6.03167 6.05276C6.25718 5.82725 6.5445 5.67367 6.85729 5.61145C7.17009 5.54923 7.49431 5.58117 7.78895 5.70321C8.0836 5.82526 8.33544 6.03194 8.51262 6.29711C8.6898 6.56229 8.78437 6.87405 8.78437 7.19297C8.78203 8.08359 8.06016 8.80547 7.17188 8.80547ZM18.9773 18.9773H16.1977V14.625C16.1977 13.5867 16.1789 12.2531 14.7516 12.2531C13.3055 12.2531 13.0828 13.3828 13.0828 14.55V18.9773H10.3055V10.0289H12.9727V11.2523H13.0102C13.3805 10.5492 14.2875 9.80625 15.6422 9.80625C18.4594 9.80625 18.9773 11.6602 18.9773 14.0695V18.9773Z" fill="#F8F8F8"/>
</svg>
