<svg width="24" height="24" viewBox="0 0 24 24" fill="none" xmlns="http://www.w3.org/2000/svg">
<g clip-path="url(#clip0_1_116)">
<path d="M14.5547 17.5687C14.1703 16.7766 13.6734 16.2 12.8156 16.5516L11.1234 17.1797C9.76876 17.8078 9.09376 17.1797 8.41407 16.2328L5.36719 9.30468C4.98282 8.5125 5.18438 7.76718 6.04219 7.41562L8.40938 6.46875C9.26719 6.1125 9.13126 5.37187 8.74688 4.57968L6.71719 0.801558C6.33282 0.00937033 5.54532 -0.182817 4.68751 0.168745C2.97657 0.876558 1.55157 1.9875 0.632819 3.63281C-0.492181 5.64375 0.0703186 8.44218 0.295319 9.61875C0.520319 10.7953 1.30782 12.8578 2.32501 14.9719C3.34219 17.0906 4.23282 18.7547 5.02969 19.6969C5.82657 20.6391 7.73907 23.2172 10.1063 23.7937C12.0469 24.2625 14.1422 23.8687 15.8578 23.1609C16.7203 22.8094 16.7203 22.0641 16.3359 21.2672L14.5547 17.5687ZM23.9625 9.225H15.6516L19.3453 5.53125H16.575L11.9578 10.1484L16.575 14.7656H19.3453L15.6516 11.0719H23.9625V9.225Z" fill="#F8F8F8"/>
</g>
<defs>
<clipPath id="clip0_1_116">
<rect width="24" height="24" fill="white"/>
</clipPath>
</defs>
</svg>
