<svg width="24" height="24" viewBox="0 0 24 24" fill="none" xmlns="http://www.w3.org/2000/svg">
<g clip-path="url(#clip0_1_122)">
<path d="M23.9632 2.34896C23.9525 2.19226 23.8959 2.04217 23.8005 1.9174C23.7051 1.79264 23.5751 1.69873 23.4266 1.64737C23.2782 1.59602 23.1179 1.58949 22.9658 1.62861C22.8137 1.66773 22.6764 1.75077 22.5712 1.86736C22.0481 2.45417 21.3671 2.87798 20.6096 3.08816C19.5881 2.13188 18.2409 1.60041 16.8416 1.60176C16.098 1.60218 15.3618 1.74906 14.6749 2.03401C13.9881 2.31896 13.3641 2.7364 12.8386 3.2625C12.3131 3.7886 11.8964 4.41306 11.6122 5.10021C11.328 5.78737 11.182 6.52377 11.1824 7.26736V7.97136C6.3968 7.60176 3.84 3.96496 3.1472 2.12176C3.09267 1.97569 2.99665 1.84875 2.87093 1.75652C2.74522 1.6643 2.59529 1.61082 2.43959 1.60266C2.28389 1.5945 2.1292 1.63202 1.99454 1.7106C1.85987 1.78918 1.7511 1.90539 1.6816 2.04496C0.00640373 5.39856 -0.251196 8.65296 0.966404 11.4242C2.032 13.8514 4.176 15.7842 7.216 17.0658C5.8352 18.0434 3.5104 19.2018 0.800004 19.2018C0.628227 19.2016 0.460943 19.2566 0.322901 19.3589C0.184859 19.4611 0.0833889 19.6051 0.0335024 19.7694C-0.016384 19.9338 -0.0120374 20.1099 0.0458991 20.2716C0.103836 20.4333 0.212285 20.5721 0.355204 20.6674C2.9552 22.4018 5.68 22.4018 8.2112 22.4018H8.288C16.0656 22.4018 22.368 16.0882 22.368 8.30256V7.53616C22.9488 6.94416 23.4016 6.34096 23.68 5.55856C23.9888 4.68496 24.0512 3.67376 23.9632 2.34896Z" fill="#F8F8F8"/>
</g>
<defs>
<clipPath id="clip0_1_122">
<rect width="24" height="24" fill="white"/>
</clipPath>
</defs>
</svg>
